<?xml version="1.0" encoding="utf-8"?>
<!-- Generator: Adobe Illustrator 24.2.0, SVG Export Plug-In . SVG Version: 6.00 Build 0)  -->
<svg version="1.1" id="Layer_1" xmlns="http://www.w3.org/2000/svg" xmlns:xlink="http://www.w3.org/1999/xlink" x="0px" y="0px"
	 viewBox="0 0 1000 1000" style="enable-background:new 0 0 1000 1000;" xml:space="preserve">
<style type="text/css">
	.st0{fill:#FFFFFF;}
	.st1{display:none;fill:#E88E6D;}
	.st2{fill:#E78D6D;}
	.st3{fill:#D07452;}
</style>
<circle class="st0" cx="500" cy="500" r="500"/>
<path class="st1" d="M486.5,564.2c0,0-111.2-95.7-130.5-125.1s-29-58.6-29-87.9c0-42.2,16.1-78.3,48.2-108.5
	c32.1-30.2,71.8-45.3,119-45.3c30.2,0,59.9,7.2,86.7,21.1c20,10.2,86.7,72.1,133.8,119.4c21.9,21.9,21.9,57.5,0,79.4
	c-0.8,0.8-1.7,1.6-2.5,2.4l0,0c-22.4,19.8-56.4,18.5-77.3-2.9c-46.9-47.8-119-108.6-142.5-108.6c-15.2,0-27.6,4.1-37.3,12.2
	c-9.7,8.1-14.5,17.3-14.5,27.5c0,10.2,3.5,19.9,10.4,29c9.4,12.1,84.9,80.3,84.9,80.3s88.8,74.3,108.1,103.7s29,58.6,29,87.9
	c0,42.2-16.1,78.3-48.2,108.5s-71.8,45.3-119,45.3c-30.2,0-59.9-7.2-86.7-21.1c-20-10.2-86.7-72.1-133.8-119.4
	c-21.9-21.9-21.9-57.5,0-79.4c0.8-0.8,1.7-1.6,2.5-2.4l0,0c22.4-19.8,56.4-18.5,77.3,2.8C411.9,631,484,691.7,507.6,691.7
	c15.2,0,27.6-4.1,37.3-12.2c9.7-8.1,14.5-17.3,14.5-27.5c0-10.2-3.4-19.9-10.3-29C539.6,611,486.5,564.2,486.5,564.2z"/>
<g>
	<path class="st2" d="M177.7,318.6h141.2c-15,7.4-21.2,22.2-16.1,38.7c10.8,34.6,21.7,69.1,32.5,103.7
		c10.9,34.8,21.8,69.7,32.7,104.6c10.8,34.8,21.4,69.5,32.1,104.3c2.2,7.2-0.8,11.5-8.3,11.5c-7.9,0-15.9-0.3-23.7,0.1
		c-18.2,0.9-31-8.1-41.3-22c-6.4-8.7-9.3-18.9-12.5-28.9c-7.3-22.9-14.4-45.9-21.6-68.8c-15.8-50.4-31.7-100.7-47.6-151
		c-5.2-16.3-9.2-33.1-16.2-48.8c-9.2-20.7-23.4-36.5-46.5-42.1c-1.6-0.4-3.2-0.5-4.8-0.8L177.7,318.6z"/>
	<path class="st2" d="M341.2,318.6h141.6c-16.3,5.5-20.7,25.1-16.6,38.3c6.9,22.1,13.8,44.2,20.8,66.2
		c12.3,38.8,24.7,77.6,36.8,116.5c13.5,43.4,26.7,86.8,40,130.2c2.2,7.3-0.8,11.4-8.4,11.5c-7.8,0-15.6-0.3-23.3,0.1
		c-18.6,1-31.5-8.1-41.9-22.5c-6.7-9.3-9.5-20.1-12.9-30.6c-9.2-28.9-18.3-57.9-27.4-86.9c-10.3-32.8-20.7-65.7-31-98.5
		c-8-25.4-15.7-51.1-24.5-76.4c-6.6-19-18.5-34.2-37.3-43C352,321.1,346.6,319.5,341.2,318.6z"/>
	<path class="st2" d="M515.2,460.1c10.8-34.2,21.9-68.4,32.3-102.8c3.6-11.8,2-23.4-6.9-33c-2.5-2.7-5.6-4.6-9.1-5.7h142.9
		c-24.1,3.3-38.9,17.1-49.7,36.3c-8,14.3-11.4,30.3-16.4,45.8c-18.7,58.5-37.1,117.2-55.6,175.8c-0.3,1.1,0.1,2.5-1.2,3.3
		c-2.5-8.7-5-17.4-7.6-26.1c-5.7-19.1-11.5-38.2-17.3-57.3C523,484.3,519,472.2,515.2,460.1z"/>
	<path class="st2" d="M735.2,576.1c3.7,9.8,6.1,20,10,29.7c7.3,18.2,16.9,34.8,31.6,47.9c12.5,11.2,27.3,18.8,42.5,25.5
		c1.1,0.5,2.3,0.5,3,2h-93.5c5-16,6.8-32.5,7.2-49.1c0.4-17.1,0.4-34.2-1.7-51.2C734.2,579.2,733.7,577.4,735.2,576.1z"/>
	<path class="st2" d="M633,503.1c-1.6-15.4,8.5-28.2,22.8-31.7c10.6-2.6,24.7,2.9,29.1,11.4c-0.3,2.7-0.6,5.4-0.9,8.1
		c-1,8.2-4.2,15.1-11.6,19.6c-9.6,5.9-22.3,8.7-33.3-0.6c-1.9-1.6-2.3-4.9-5.5-4.9h0.1C633.9,504.2,633.6,503.5,633,503.1z"/>
	<path class="st3" d="M735.2,576.1c-1.5,1.3-1,3.2-0.8,4.7c2,17,2.1,34.2,1.7,51.2c-0.4,16.6-2.2,33.1-7.2,49.1H695
		c5.6-4.9,10.8-9.4,14.9-14.9c8.5-11,12-24.1,14.3-37.4c2.6-15.3,3.8-30.7,4.8-46.2c0.5-7.7,0.3-15.6,2.1-23.7
		c1.4,3.1,2.2,6.4,2.3,9.7c-0.1,0.7,0.1,1.5,0.7,1.9c0.1,0.6,0.1,1.2,0.2,1.8l0.7,1L735.2,576.1z"/>
	<path class="st3" d="M515.2,460.1c3.8,12.1,7.8,24.1,11.5,36.3c5.9,19.1,11.6,38.2,17.3,57.3c2.6,8.7,5.1,17.4,7.6,26.1
		c-1.5,5.3-3.1,10.6-4.9,16.9c-3.3-7.7-5-14.8-7.1-21.8c-7.4-23.7-14.8-47.3-22.2-71c-2.8-8.9-5.8-17.6-5.2-27.2
		C512.5,471.2,513.5,465.6,515.2,460.1z"/>
	<path class="st3" d="M633.7,504.9c3.2,0,3.7,3.3,5.5,4.9c11,9.4,23.7,6.5,33.3,0.6c7.3-4.5,10.5-11.4,11.6-19.6
		c0.3-2.7,0.6-5.4,0.9-8.1c7.1,8.8,8,18.3,3.6,28.5c-4.5,10.6-14.3,18.7-31.1,17.3c-9.5-0.8-20.1-9.8-23.3-20.2
		C634,507.3,633.8,506.1,633.7,504.9z"/>
	<path class="st3" d="M633,503.1c0.6,0.4,0.9,1.2,0.7,1.9C632.9,504.6,632.9,503.8,633,503.1z"/>
	<path class="st2" d="M734.1,570.6c-0.5-0.5-0.8-1.2-0.7-1.9C734.4,569.1,734.4,569.8,734.1,570.6z"/>
	<path class="st2" d="M735,573.4l-0.7-1C734.8,572.5,735.2,572.8,735,573.4z"/>
</g>
</svg>
